# xmcd
#
# Track frame offsets:
# 150
# 25571
# 43028
# 62348
# 77926
# 95512
# 111670
# 127178
# 142940
# 158663
# 172762
# 187188
# 197919
#
# Disc length: 3225 seconds
#
# Revision: 0
# Processed by: cddbd v1.5.2PL0 Copyright (c) Steve Scherf et al.
# Submitted via: Axialis_AX_CDPlayer 2.6
#
DISCID=af0c970d
DTITLE=Willie Nelson - Moment Of Forever
DYEAR=1900
DGENRE=
TTITLE0=Over You Again
TTITLE1=Moment Of Forever
TTITLE2=The Bob Song
TTITLE3=Louisiana
TTITLE4=Gravedigger
TTITLE5=Keep Me From Blowing Away
TTITLE6=Takin' On Water
TTITLE7=Always Now
TTITLE8=I'm Alive
TTITLE9=When I Was Young And Grandma Wasn't Old
TTITLE10=Worry B Gone
TTITLE11=You Don't Think I'm Funny Anymore
TTITLE12=Gotta Serve Somebody /(Hidden Track)You Don't Think I'm Funny Anymo
TTITLE12=re
EXTD=www.willienelson.com
EXTT0=
EXTT1=
EXTT2=
EXTT3=
EXTT4=
EXTT5=
EXTT6=
EXTT7=
EXTT8=
EXTT9=
EXTT10=
EXTT11=
EXTT12=
PLAYORDER=
